# xmcd
#
# Track frame offsets:
#   150
#   29431
#   51590
#   75995
#   89881
#   106707
#   123160
#   137893
#   156259
#   178003
#   192635
#   209632
#   228898
#   253940
#   267833
#   289549
#   308137
#   325717
#
# Disc length: 4544 seconds
#
# Revision: 0
# Processed by: cddbd v1.5.2PL0 Copyright (c) Steve Scherf et al.
# Submitted via: uFREEDB ActiveX Control 1.5
#
DISCID=0711be12
DTITLE=1º CONVENCAO NATIVISTA DE JULIO DE CASTILHOS - PONTEANDO HISTORIAS
DYEAR=1900
DGENRE=Country
TTITLE0=NA ROMARIA
TTITLE1=O AMOR
TTITLE2=POTREIRO DAS LEMBRANCAS
TTITLE3=QUANDO ME LARGO PRA VILA
TTITLE4=QUADRO DA QUERENCIA
TTITLE5=DE SONHOS E VERSOS
TTITLE6=MI VAILAR CHAMAMECERO
TTITLE7=NAO TEM NADA MAIS BONITO
TTITLE8=MEU CACHORRO
TTITLE9=AVIOS DE MATE E PAIXAO
TTITLE10=BUGIO CONSCIENTE
TTITLE11=DAS COISAS QUE A GENTE APRENDE
TTITLE12=ELEGIA AO INDIO HERDEIRO DO MEU DESCASO
TTITLE13=NA ALMA DESSA MILONGA
TTITLE14=LICOES DE ESTRADA
TTITLE15=DAS CORDAS DO VIOLAO A UMA HISTORIA DE VIDA
TTITLE16=DE PROSA COM O RIO
TTITLE17=MANHAS GAUCHAS
EXTD=
EXTT0=
EXTT1=
EXTT2=
EXTT3=
EXTT4=
EXTT5=
EXTT6=
EXTT7=
EXTT8=
EXTT9=
EXTT10=
EXTT11=
EXTT12=
EXTT13=
EXTT14=
EXTT15=
EXTT16=
EXTT17=
PLAYORDER=
